<svg width="16" height="16" viewBox="0 0 16 16" fill="none" xmlns="http://www.w3.org/2000/svg">
<g clip-path="url(#clip0_1497_3599)">
<path d="M15.6466 6.80001C15.0802 6.35361 14.0226 6.73441 13.1986 7.64961C12.429 7.43521 11.7458 7.48801 11.1634 7.81601C10.0482 8.44481 9.62578 9.89121 9.46898 10.9904C9.44498 11.16 9.42258 11.3328 9.39858 11.5056C9.14898 13.408 8.91218 15.2064 6.65618 15.2064C6.61938 15.2064 6.58258 15.2064 6.54418 15.2048C5.90418 15.1888 5.44338 14.9904 5.13618 14.5968C4.56978 13.8704 4.66738 12.6832 4.73938 12.1904C4.96338 12.0896 5.12178 11.8688 5.12978 11.608L5.16338 10.6336L6.35858 10.2784C6.50738 10.2336 6.62258 10.1392 6.70578 10.0224C6.92018 10.0704 7.18738 10.0592 7.37618 9.94081C7.70738 9.73441 8.19058 9.33761 8.79218 8.58721C9.44978 7.76641 9.61138 7.10561 9.62738 6.67681C9.63538 6.37121 9.42258 6.06081 9.26418 5.97441C9.10578 5.88801 9.07698 6.04961 9.10738 6.35361C9.15218 6.81121 9.08018 7.50721 8.48978 8.26401C8.47858 8.27681 8.46898 8.28641 8.45938 8.29921L8.46418 8.26561C8.60498 8.04801 8.72658 7.81921 8.81938 7.57441C9.77938 5.03201 7.70418 2.06561 7.61458 1.94081C7.59538 1.91361 7.56978 1.89601 7.54418 1.87521C7.60338 1.73921 7.58898 1.61601 7.48978 1.55201C7.33458 1.45121 7.09138 1.14881 6.95058 0.876809L6.70098 0.400008C6.56178 0.129608 6.26738 0.0816085 6.04658 0.292808L5.42738 0.894409C5.20498 1.10561 5.24818 1.39201 5.51858 1.53441L5.95538 1.75841C6.22578 1.90081 6.52178 2.15681 6.61778 2.33121C6.68978 2.46081 6.85618 2.48001 7.02738 2.39201C7.20338 2.64801 8.91218 5.24161 8.12818 7.31681C8.09618 7.40161 8.04658 7.48001 8.00498 7.56161L8.00018 7.56321C7.95218 7.55201 7.90578 7.53441 7.85618 7.53441C7.73298 7.53441 7.61778 7.57121 7.52178 7.63201L7.66738 7.77121C7.57938 7.87841 7.52018 8.00961 7.52018 8.15841C7.52018 8.19521 7.52818 8.23041 7.53458 8.26561C7.25938 8.56641 6.91538 8.83521 6.49938 9.06401C6.34578 8.97761 6.16018 8.95041 5.97938 9.00481L4.52338 9.43681L2.96498 8.94401C2.78738 8.88801 2.60178 8.91201 2.44978 8.99521C1.70738 8.55521 1.20178 7.99361 0.944178 7.31681C0.123378 5.14241 2.04178 2.39681 2.06098 2.36961C2.06258 2.36481 2.06258 2.36001 2.06738 2.35521C2.06738 2.35521 2.11218 2.39841 2.16818 2.44801C2.22418 2.50081 2.34578 2.40161 2.44178 2.22721C2.53618 2.05121 2.83538 1.79521 3.10578 1.65441L3.54098 1.42881C3.81298 1.28801 3.85458 1.00161 3.63378 0.788809L3.01298 0.188808C2.79218 -0.0239915 2.50098 0.0240085 2.35858 0.296008L2.11058 0.772809C1.96818 1.04481 1.72658 1.34561 1.57138 1.44801C1.41298 1.54721 1.34418 1.68321 1.41298 1.74721L1.53938 1.86561C1.50898 1.88641 1.48178 1.90881 1.45778 1.94081C1.36818 2.06561 -0.707022 5.03201 0.252978 7.57441C0.576178 8.42561 1.19698 9.11841 2.10578 9.64641C2.12978 9.90081 2.30418 10.128 2.56338 10.2112L3.83538 10.6128L3.80178 11.5616C3.79698 11.7584 3.87858 11.9376 4.00978 12.0656C3.92178 12.6528 3.80498 14.0896 4.55218 15.048C4.99858 15.6208 5.66258 15.9216 6.52658 15.9424C6.57298 15.9456 6.61778 15.9456 6.66258 15.9456C9.56018 15.9456 9.87698 13.5408 10.1314 11.6032C10.1538 11.4336 10.1762 11.264 10.2002 11.096C10.389 9.77281 10.8594 8.83681 11.5266 8.46081C11.861 8.27041 12.2626 8.21761 12.7202 8.29761C12.1458 9.24641 12.0738 10.2368 12.597 10.6528C13.2034 11.1328 14.3778 10.6592 15.2194 9.59521C16.061 8.53121 16.2514 7.28001 15.6466 6.80001ZM8.35378 8.42561C8.30418 8.48481 8.25458 8.54881 8.20658 8.60321C8.25458 8.54241 8.30258 8.48161 8.34738 8.41921L8.35378 8.42561ZM14.1378 8.71521C13.8226 9.11521 13.3826 9.29281 13.1554 9.11201C12.989 8.98081 12.9842 8.69441 13.1154 8.39361C13.2354 8.43201 13.357 8.47361 13.4818 8.52641C13.6722 8.60641 13.8866 8.52001 13.9666 8.33121C14.0466 8.14401 13.9586 7.92641 13.7698 7.84641C13.7138 7.82241 13.661 7.80481 13.605 7.78561C13.8626 7.59681 14.133 7.53921 14.2946 7.66881C14.5234 7.84961 14.4514 8.31841 14.1378 8.71521Z" fill="#010811"/>
</g>
<defs>
<clipPath id="clip0_1497_3599">
<rect width="16" height="16" fill="white"/>
</clipPath>
</defs>
</svg>
